<svg width="125" height="37" viewBox="0 0 125 37" fill="none" xmlns="http://www.w3.org/2000/svg">
<path d="M35.227 17.4276L42.0965 17.5174C41.0054 13.5476 39.6826 9.32692 38.8375 6.782H38.78C37.8806 9.21171 36.3453 13.6103 35.227 17.4276ZM29.4407 23.9678C31.2779 23.9306 31.6645 23.224 32.1805 21.3755C33.7892 15.7723 36.9843 6.66509 38.2943 3.56104L40.8297 3.59323C42.0773 6.73117 44.9434 15.9163 46.3939 21.5534C46.8732 23.4172 47.1512 24.1271 49.0746 24.2135L49.0619 25.264L41.4287 25.1658L41.4399 24.1153C43.3059 24.078 43.6573 23.8662 43.242 22.0058C43.0471 21.1383 42.7627 20.0217 42.5183 19.0915L34.7669 18.9915L34.4283 20.2623C33.6295 23.2799 33.9186 23.9645 36.0753 24.0526L36.0626 25.1048L29.4199 25.0183L29.4407 23.9678Z" fill="white"/>
<path d="M54.933 17.9051C52.7284 17.0731 51.1404 15.7854 51.1676 13.3438C51.1931 11.0887 52.853 8.73012 56.4938 8.77756C58.855 8.80806 61.3168 9.98225 61.2961 11.9596C61.2817 13.1032 60.5197 13.5268 59.6458 13.576C59.3806 11.2547 57.9652 10.1873 56.4203 10.1669C54.8468 10.1466 53.7045 11.1209 53.6821 12.5729C53.6678 13.8708 54.5624 14.6858 56.5354 15.4228L57.9859 15.9718C60.2497 16.8037 61.6603 18.2134 61.6348 20.4381C61.6012 23.4659 59.3646 25.3229 55.6647 25.2755C53.3051 25.245 50.4918 24.1267 50.5158 22.0257C50.5286 20.7888 51.3513 20.2738 52.2827 20.2873C52.5191 22.5154 54.1071 23.8641 55.7382 23.8861C57.7783 23.9115 59.1282 23.0389 59.149 21.3022C59.1633 20.0044 58.2703 19.1589 56.3836 18.454L54.933 17.9051Z" fill="white"/>
<path d="M65.4924 10.5719L63.2559 10.5431L63.2718 9.18765L65.5084 9.21645L65.5515 5.41601C66.4528 5.00896 67.4106 4.76058 68.3872 4.68066L68.3345 9.25542L72.1814 9.30456L72.1654 10.66L68.3185 10.6092L68.2115 20.0044C68.1811 22.6002 68.9256 23.7523 70.587 23.7743C71.1783 23.7574 71.762 23.6288 72.3108 23.3948L72.2948 24.6927C71.3435 25.1125 70.318 25.3101 69.2882 25.2722C66.7529 25.24 65.3407 23.8608 65.3886 19.6588L65.4924 10.5719Z" fill="white"/>
<path d="M74.071 24.2184C76.0248 24.1506 76.3204 23.7524 76.3363 22.3546L76.4514 12.3427C76.4673 10.9516 76.0919 10.6076 74.2292 10.4602L74.2404 9.40973L78.902 9.46903C79.041 10.0587 79.0522 11.6039 79.0458 12.1902C79.5251 10.8059 80.859 9.15388 82.8687 9.18099C84.6165 9.20302 85.9153 10.3315 85.8961 12.0326C85.8833 13.1136 85.0286 13.8744 83.9503 13.954C83.7362 12.3749 83.1084 11.2227 81.8847 11.2074C80.3973 11.1888 79.2711 12.873 79.2295 16.6124L79.1592 22.3987C79.1433 23.7897 79.5171 24.1947 81.4693 24.3133L81.4581 25.2706L74.0566 25.1757L74.071 24.2184Z" fill="white"/>
<path d="M96.2017 16.2142C95.7223 16.5734 95.1861 16.8385 94.6185 16.997L92.6296 17.59C90.5256 18.2118 89.8994 19.4403 89.885 20.6771C89.8642 22.4376 90.9873 23.5965 92.4411 23.6151C94.307 23.6389 96.1282 22.3952 96.1618 19.4589L96.2017 16.2142ZM88.0302 12.185C88.051 10.3619 90.2828 8.84376 93.5162 8.88612C97.3631 8.93526 99.0885 10.9058 99.0374 15.4162L98.9687 22.1224C98.9527 23.5118 99.1812 23.8862 101.074 23.9422L101.065 24.869C100.253 25.0792 99.4186 25.1721 98.5837 25.1451C97.1571 25.1282 96.3806 24.2217 96.3471 22.6443C95.2192 24.4539 93.7814 25.301 91.4218 25.2705C88.8865 25.2383 87.0126 23.483 87.0413 21.0346C87.0653 18.9031 88.1021 17.3698 91.727 16.4599L94.2112 15.8431C95.7017 15.4602 96.2321 14.8807 96.2512 13.3016C96.2688 11.6632 95.2927 10.2907 93.3756 10.267C91.1039 10.2365 90.2988 11.8648 90.0128 13.9014C88.9344 13.8557 88.0366 13.4117 88.051 12.1766" fill="white"/>
<path d="M103.465 10.5719L101.229 10.5431L101.244 9.18765L103.481 9.21645L103.524 5.41601C104.425 5.00888 105.382 4.7605 106.358 4.68066L106.307 9.25542L110.152 9.30456L110.136 10.66L106.291 10.6092L106.184 20.0044C106.157 22.5985 106.898 23.7506 108.553 23.7659C109.145 23.7492 109.728 23.6207 110.277 23.3863L110.263 24.6842C109.311 25.1037 108.286 25.3013 107.256 25.2637C104.721 25.2298 103.309 23.8523 103.356 19.6503L103.465 10.5719Z" fill="white"/>
<path d="M118.261 10.1586C115.521 10.1247 114.379 13.2084 114.336 16.9699C114.293 20.7314 115.365 23.8439 118.104 23.8795C120.844 23.9151 121.985 20.8398 122.028 17.0699C122.071 13.2999 120.999 10.1942 118.261 10.1586ZM118.088 25.2706C113.834 25.2163 111.307 21.9378 111.364 16.9326C111.422 11.9275 114.023 8.71501 118.277 8.76923C122.531 8.82345 125.057 12.102 124.999 17.1072C124.942 22.1123 122.341 25.3248 118.088 25.2706Z" fill="white"/>
<path d="M26.1552 35.718L23.7109 28.6101L14.0825 0.627879C14.0196 0.446473 13.9064 0.289469 13.7579 0.177453C13.6094 0.0654361 13.4324 0.0036361 13.2502 0.000155549C13.0679 -0.003325 12.889 0.0516764 12.7367 0.157948C12.5845 0.26422 12.4661 0.416801 12.3971 0.595686L6.05158 17.1868L1.49375 13.0221C1.35949 12.8987 1.19387 12.82 1.01765 12.796C0.841425 12.772 0.662441 12.8037 0.50312 12.8871C0.3438 12.9705 0.211231 13.1019 0.122023 13.2649C0.032816 13.4278 -0.00906133 13.6151 0.00163876 13.8032L0.941001 30.7891C0.950298 30.9627 1.004 31.1303 1.09634 31.274C1.18868 31.4177 1.31617 31.532 1.46512 31.6046C1.61408 31.6772 1.77887 31.7055 1.94181 31.6863C2.10475 31.6671 2.25969 31.6012 2.38998 31.4956L11.1765 24.398L24.7174 36.7668C24.8687 36.9056 25.0592 36.9871 25.259 36.9986C25.4587 37.0101 25.6564 36.9509 25.821 36.8302C25.9856 36.7096 26.1077 36.5344 26.1682 36.3321C26.2287 36.1299 26.2241 35.9121 26.1552 35.7129V35.718ZM5.33428 19.0591L2.5098 26.4414L1.92989 15.9499L5.33428 19.0591ZM3.91405 27.8511L6.77847 20.3773L9.77867 23.1187L3.91405 27.8511ZM7.49577 18.5135L13.1895 3.62011L17.6978 16.7243L11.2468 21.9344L7.49577 18.5135ZM12.6463 23.2187L18.3464 18.6151L22.0127 29.2743L23.27 32.9155L12.6463 23.2187Z" fill="#E4353E"/>
</svg>
